<svg width="120" height="52" viewBox="0 0 120 52" fill="none" xmlns="http://www.w3.org/2000/svg">
<path d="M2.16 41L0.44 13.08H5.6L6.4 29.8L6.64 35.08H7L9.4 19.16H14.8L17.2 35.08H17.56L17.8 29.96L18.6 13.08H23.56L21.84 41H14.24L12.2 25.6H11.8L9.76 41H2.16ZM24.9044 41L32.6244 30.52L25.4244 20.36H32.1844L34.3844 23.68L36.0644 26.36H36.3844L38.1044 23.68L40.3444 20.36H46.5444L39.3444 30.2L47.0644 41H40.2644L37.6644 37.12L35.8644 34.36H35.5444L33.7844 37.12L31.1444 41H24.9044ZM51.2888 41V13.08H69.5288V17.4H56.5288V24.68H68.2488V29H56.5288V41H51.2888ZM75.2731 41V13.08H93.5131V17.4H80.5131V24.68H92.2331V29H80.5131V41H75.2731ZM98.8975 36.4H103.658V24.96H98.8975V20.36H109.578V26.2H109.858C110.044 25.4533 110.298 24.7333 110.618 24.04C110.964 23.32 111.391 22.6933 111.898 22.16C112.431 21.6 113.071 21.16 113.818 20.84C114.564 20.52 115.444 20.36 116.458 20.36H118.418V25.8H114.018C112.551 25.8 111.444 26.24 110.698 27.12C109.951 27.9733 109.578 29.0267 109.578 30.28V36.4H116.378V41H98.8975V36.4Z" fill="white"/>
</svg>
