<svg width="176" height="52" viewBox="0 0 176 52" fill="none" xmlns="http://www.w3.org/2000/svg">
<path d="M58.16 41L56.44 13.08H61.6L62.4 29.8L62.64 35.08H63L65.4 19.16H70.8L73.2 35.08H73.56L73.8 29.96L74.6 13.08H79.56L77.84 41H70.24L68.2 25.6H67.8L65.76 41H58.16ZM80.9044 41L88.6244 30.52L81.4244 20.36H88.1844L90.3844 23.68L92.0644 26.36H92.3844L94.1044 23.68L96.3444 20.36H102.544L95.3444 30.2L103.064 41H96.2644L93.6644 37.12L91.8644 34.36H91.5444L89.7844 37.12L87.1444 41H80.9044ZM107.289 41V13.08H125.529V17.4H112.529V24.68H124.249V29H112.529V41H107.289ZM131.273 41V13.08H149.513V17.4H136.513V24.68H148.233V29H136.513V41H131.273ZM154.898 36.4H159.658V24.96H154.898V20.36H165.578V26.2H165.858C166.044 25.4533 166.298 24.7333 166.618 24.04C166.964 23.32 167.391 22.6933 167.898 22.16C168.431 21.6 169.071 21.16 169.818 20.84C170.564 20.52 171.444 20.36 172.458 20.36H174.418V25.8H170.018C168.551 25.8 167.444 26.24 166.698 27.12C165.951 27.9733 165.578 29.0267 165.578 30.28V36.4H172.378V41H154.898V36.4Z" fill="white"/>
<path d="M24.2532 19.269L31.2328 26.2467L24.2532 33.2244L17.2736 26.2467L24.2532 19.269Z" fill="white"/>
<path d="M42.0204 19.269L49 26.2467L42.0204 33.2244L35.0408 26.2467L42.0204 19.269Z" fill="white"/>
<path d="M24.2532 36.0446L31.2328 43.0223L24.2532 50L17.2736 43.0223L24.2532 36.0446Z" fill="white"/>
<path d="M6.9796 19.269L13.9592 26.2467L6.9796 33.2244L0 26.2467L6.9796 19.269Z" fill="white"/>
<path d="M24.2532 2L31.2328 8.97772L24.2532 15.9554L17.2736 8.97772L24.2532 2Z" fill="white"/>
<path d="M33.4609 10.5572L40.4405 17.5349L33.1368 24.8366L26.1572 17.8589L33.4609 10.5572Z" fill="white"/>
<path d="M15.5391 28.1502L22.5187 35.1279L15.7933 41.8514L8.81373 34.8737L15.5391 28.1502Z" fill="white"/>
<path d="M26.1572 35.1279L33.1368 28.1502L40.1164 34.8737L33.1368 41.8514L26.1572 35.1279Z" fill="white"/>
<path d="M8.81373 17.7891L15.7933 10.8114L22.5187 17.5349L15.5391 24.5127L8.81373 17.7891Z" fill="white"/>
</svg>
